<?xml version="1.0" encoding="UTF-8" standalone="no"?>
<svg
   width="40"
   height="40"
   viewBox="0 0 40 40"
   version="1.1"
   id="svg1"
   sodipodi:docname="Cattle.svg"
   inkscape:version="1.4.3 (0d15f75, 2025-12-25)"
   xml:space="preserve"
   xmlns:inkscape="http://www.inkscape.org/namespaces/inkscape"
   xmlns:sodipodi="http://sodipodi.sourceforge.net/DTD/sodipodi-0.dtd"
   xmlns="http://www.w3.org/2000/svg"
   xmlns:svg="http://www.w3.org/2000/svg"><defs
     id="defs1" /><sodipodi:namedview
     id="namedview1"
     pagecolor="#ffffff"
     bordercolor="#000000"
     borderopacity="0.25"
     inkscape:showpageshadow="2"
     inkscape:pageopacity="0.0"
     inkscape:pagecheckerboard="0"
     inkscape:deskcolor="#d1d1d1"
     inkscape:zoom="3.8625708"
     inkscape:cx="67.830472"
     inkscape:cy="-29.772917"
     inkscape:window-width="1261"
     inkscape:window-height="769"
     inkscape:window-x="192"
     inkscape:window-y="102"
     inkscape:window-maximized="0"
     inkscape:current-layer="svg1" /><circle
     cx="20"
     cy="20"
     r="18"
     fill="black"
     stroke="white"
     stroke-width="2"
     id="circle1"
     style="fill:#784421" /><style
     type="text/css"
     id="style1">
<![CDATA[
	.st0{fill:#000000;}
]]>
</style><g
     id="g1"
     transform="matrix(0.05059406,0,0,0.05144719,7.3976489,6.8098297)"
     style="fill:#ffd42a">
	<path
   class="st0"
   d="m 426.031,156.824 c 6.125,-9.891 10.438,-20.141 12.422,-30.188 7.953,-40.094 -17.984,-86.156 -63.75,-103.547 -8.453,-3.219 -13.156,3.984 -8.219,11.359 12.031,17.906 21.844,51.125 3.984,73.922 -1.625,2.094 -3.391,3.984 -5.188,5.797 L 343.25,98.699 h -174.5 l -22.031,15.469 c -1.797,-1.813 -3.563,-3.703 -5.188,-5.797 -17.859,-22.797 -8.047,-56.016 3.984,-73.922 4.938,-7.375 0.234,-14.578 -8.219,-11.359 -45.765,17.39 -71.702,63.453 -63.749,103.547 1.984,10.047 6.297,20.297 12.422,30.188 L 0,217.184 c 0,0 63.984,63.984 119.375,19.75 0,31.594 13.828,67.938 44.641,89.25 l 16.578,66.078 c -20.547,6.125 -35.531,25.141 -35.531,47.672 0,27.484 22.266,49.766 49.75,49.766 h 122.375 c 27.484,0 49.766,-22.281 49.766,-49.766 0,-22.531 -15,-41.547 -35.547,-47.672 L 348,326.184 c 30.797,-21.313 44.625,-57.656 44.625,-89.25 C 448.016,281.168 512,217.184 512,217.184 Z"
   id="path1"
   style="fill:#ffd42a" />
</g></svg>
