<?xml version="1.0" encoding="UTF-8" standalone="no"?>
<svg
   width="40"
   height="40"
   viewBox="0 0 40 40"
   version="1.1"
   id="svg1"
   sodipodi:docname="Gulf_Closed.svg"
   inkscape:version="1.4.3 (0d15f75, 2025-12-25)"
   xml:space="preserve"
   xmlns:inkscape="http://www.inkscape.org/namespaces/inkscape"
   xmlns:sodipodi="http://sodipodi.sourceforge.net/DTD/sodipodi-0.dtd"
   xmlns="http://www.w3.org/2000/svg"
   xmlns:svg="http://www.w3.org/2000/svg"><defs
     id="defs1" /><sodipodi:namedview
     id="namedview1"
     pagecolor="#ffffff"
     bordercolor="#000000"
     borderopacity="0.25"
     inkscape:showpageshadow="2"
     inkscape:pageopacity="0.0"
     inkscape:pagecheckerboard="0"
     inkscape:deskcolor="#d1d1d1"
     inkscape:zoom="10.925"
     inkscape:cx="21.418764"
     inkscape:cy="26.910755"
     inkscape:window-width="1261"
     inkscape:window-height="769"
     inkscape:window-x="192"
     inkscape:window-y="102"
     inkscape:window-maximized="0"
     inkscape:current-layer="svg1" /><circle
     cx="20"
     cy="20"
     r="18"
     fill="black"
     stroke="white"
     stroke-width="2"
     id="circle1"
     style="fill:#0000ff" /><style
     type="text/css"
     id="style1">
<![CDATA[
	.st0{fill:#000000;}
]]>
</style><g
     id="g1"><path
       d="M 19.285001,7.3691145 V 22.779381 H 7.5718591 c -1.1598945,0 -1.8584554,-1.037388 -1.2331121,-1.82699 L 16.588842,6.7277103 c 0.790833,-0.9947043 2.696159,-0.5418149 2.696159,0.6414042 m 5.611995,6.8123905 6.05135,6.754286 c 0.648777,0.788421 -0.04978,1.84359 -1.219933,1.84359 h -7.514396 v -7.939884 c 0,-1.172537 1.878965,-1.63373 2.682979,-0.657992 M 6.2611229,26.866102 7.7256391,29.237273 c 0.247497,0.401914 0.755683,0.655631 1.309269,0.655631 H 31.730392 c 0.46132,0 0.894815,-0.175467 1.171605,-0.474233 l 2.196766,-2.371178 c 0.724932,-0.781298 0.03511,-1.896936 -1.171607,-1.896936 H 7.5703921 c -1.0881183,0 -1.7969461,0.928316 -1.3092692,1.715545"
       id="ship_round-[#613]"
       style="fill:#00ffff;fill-rule:evenodd;stroke:none;stroke-width:1.31769" /></g><rect
     style="fill:#0000ff;fill-opacity:1;stroke:none;stroke-width:0.778634"
     id="rect1"
     width="12.173912"
     height="11.624714"
     x="21.32723"
     y="11.899313" /></svg>
